<?xml version="1.0" encoding="UTF-8" standalone="no"?>
<svg width="220px" height="220px" viewBox="0 0 220 220" version="1.1" xmlns="http://www.w3.org/2000/svg" xmlns:xlink="http://www.w3.org/1999/xlink">
    <!-- Generator: Sketch 39.1 (31720) - http://www.bohemiancoding.com/sketch -->
    <title>Black</title>
    <desc>Created with Sketch.</desc>
    <defs></defs>
    <g id="6-Hats" stroke="none" stroke-width="1" fill="none" fill-rule="evenodd">
        <g id="Black">
            <rect id="black-RECTANGLE-Copy-2" fill="#3C3C3C" x="0" y="0" width="220" height="220"></rect>
            <g id="hat" transform="translate(27.000000, 4.000000)" fill="#000000">
                <g id="Group">
                    <path d="M133.969925,7.61952229 C133.969925,11.803431 109.458517,15.1954326 82.9616862,15.1954326 C56.4648549,15.1954326 31.9534476,11.803431 31.9534476,7.61952229 C31.9534476,3.43561361 56.4648549,0.0436119413 82.9616862,0.0436119413 C109.458517,0.0436119413 133.969925,3.43561361 133.969925,7.61952229 L133.969925,7.61952229 Z" id="Shape"></path>
                    <path d="M130.938052,91.8073137 C130.938052,95.5800461 109.456632,98.6356194 82.9616862,98.6356194 C56.4667404,98.6356194 34.9834347,95.5800461 34.9834347,91.8073137 L31.9534476,7.25562216 C31.9534476,11.0283546 56.4648549,14.0839279 82.9616862,14.0839279 C109.458517,14.0839279 133.969925,11.0283546 133.969925,7.25562216 L130.938052,91.8073137 L130.938052,91.8073137 Z" id="Shape"></path>
                    <path d="M130.938052,93.8103344 L130.938052,100.684841 C130.938052,104.86875 109.456632,108.260752 82.9616862,108.260752 C56.4667404,108.260752 34.9834347,104.86875 34.9834347,100.684841 L34.9834347,93.8103344 C13.8941969,96.1803989 0.135755487,100.072056 0.135755487,104.469026 C0.135755487,111.694234 37.2177437,121.31779 82.9616862,121.31779 C128.705629,121.31779 165.787617,111.694234 165.787617,104.469026 C165.787617,100.072056 152.031061,96.1803989 130.938052,93.8103344 L130.938052,93.8103344 Z" id="Shape"></path>
                </g>
            </g>
            <g id="glasses" transform="translate(50.000000, 128.000000)" fill="#000000">
                <path d="M59.9792301,2.42953843 C47.6543841,2.42953843 40.1379995,0.101230768 27.8131535,0.025307692 C11.9705383,-0.050615384 9.1866922,1.8980769 1.29069229,2.50546151 C0.582076916,2.55607689 -0.075923076,3.13815381 0.025307692,4.35292303 C0.025307692,6.40284608 0.177153844,8.2249999 0.177153844,10.0471537 C0.177153844,11.6921537 1.54376921,11.4896922 2.35361536,13.4130768 C4.88438456,19.5375382 3.84676919,29.7365381 9.86999989,35.0764611 C11.5909229,36.5949227 14.6784614,38.4929996 17.6900767,38.7713842 C32.1913842,40.1126918 44.6680764,41.0490764 50.2357686,26.2693843 C51.3746148,23.2071536 53.0449225,20.7016921 54.234384,16.1463075 C55.9046917,13.0587691 55.9806147,13.6661537 60.0045378,13.4636922 C64.0284608,13.6661537 64.1043839,13.0334614 65.7746915,16.1463075 C66.9641531,20.7016921 68.6344607,23.2071536 69.7733069,26.2693843 C75.3156914,41.0490764 87.8176913,40.1126918 102.318999,38.7713842 C105.330614,38.4929996 108.418153,36.5949227 110.139076,35.0764611 C116.162306,29.7365381 115.149999,19.5375382 117.65546,13.4130768 C118.439999,11.4896922 119.831922,11.6921537 119.831922,10.0471537 C119.831922,8.2503076 119.983768,6.40284608 119.983768,4.35292303 C120.084999,3.13815381 119.426999,2.55607689 118.718383,2.50546151 C110.822383,1.8980769 108.038537,-0.050615384 92.195922,0.025307692 C79.871076,0.101230768 72.3546915,2.42953843 60.0298455,2.42953843 L59.9792301,2.42953843 Z M28.9519997,2.42953843 C35.7091534,2.42953843 46.3383841,3.51776919 50.210461,7.33923068 C53.4498455,10.5279999 51.931384,15.4123844 50.5141533,20.4486151 C48.970384,25.8897689 46.5408456,31.3562304 41.7829995,34.3678458 C38.5183072,36.4430765 33.9629227,37.6578457 28.8001535,37.7337688 C13.6155383,37.9868457 7.49107684,33.0265381 7.41515376,20.2208459 C7.38984607,14.1723075 6.30161531,8.60461528 9.76876912,5.74484609 C13.640846,2.55607689 22.4226151,2.42953843 28.9519997,2.42953843 L28.9519997,2.42953843 Z M91.0317682,2.42953843 C84.2746144,2.42953843 73.6453838,3.51776919 69.7733069,7.33923068 C66.5339223,10.5279999 68.0523838,15.4123844 69.4696146,20.4486151 C71.0133838,25.8897689 73.4429222,31.3562304 78.2007683,34.3678458 C81.4654606,36.4430765 86.0208452,37.6578457 91.1836143,37.7337688 C106.36823,37.9868457 112.492691,33.0265381 112.568614,20.2208459 C112.593922,14.1723075 113.682153,8.60461528 110.214999,5.74484609 C106.342922,2.55607689 97.5611527,2.42953843 91.0317682,2.42953843 L91.0317682,2.42953843 Z" id="Shape"></path>
            </g>
            <g id="mustache" transform="translate(65.000000, 169.000000)" fill="#000000">
                <path d="M85.7071079,11.4235929 C79.0354704,2.99247195 66.3365894,0 57.4905723,0 C54.849997,0 48.4384571,0.309597098 45.9274807,3.16977029 C45.5953838,3.54776675 45.2884867,3.92036326 44.9995894,4.29025979 C44.7106921,3.92126325 44.402895,3.54866674 44.0716981,3.17067028 C41.5607216,0.309597098 35.1491817,0 32.5086064,0 C23.6625893,0 10.9655083,2.99247195 4.29207087,11.4235929 C0.234008899,16.5517449 -0.953979967,22.835486 0.760503965,30.0984179 C0.929702379,30.8166112 1.53809668,31.3494062 2.27248979,31.4223055 C2.33008925,31.4286055 2.38768871,31.4313054 2.44528817,31.4313054 C3.1148819,31.4313054 3.73227611,31.0416091 4.01667345,30.4233149 C4.04997314,30.3513156 7.49154088,23.1693829 12.4810941,23.1693829 C13.5835838,23.1693829 14.734673,23.5212796 15.905562,24.2124731 C19.3111301,26.2275542 23.5365905,27.2931442 28.1274475,27.2931442 L28.1283475,27.2931442 C34.9583835,27.2931442 41.2628244,24.9387663 44.9995894,21.2650007 C48.7363543,24.9387663 55.0407953,27.2931442 61.8726312,27.2931442 C66.4625882,27.2931442 70.6889486,26.2275542 74.0954167,24.2124731 C75.2645057,23.5203796 76.4164949,23.1693829 77.5180846,23.1693829 C82.5616373,23.1693829 85.9510056,30.3531155 85.9834053,30.4260149 C86.2678026,31.0434091 86.8851968,31.4304054 87.5547905,31.4304054 C87.61149,31.4304054 87.6690895,31.4277055 87.7266889,31.4214055 C88.461082,31.3485062 89.0694763,30.8157112 89.2395747,30.0975179 C90.9540587,22.835486 89.7669698,16.5517449 85.7071079,11.4235929 L85.7071079,11.4235929 Z" id="Shape"></path>
            </g>
        </g>
    </g>
</svg>