<?xml version="1.0" encoding="UTF-8" standalone="no"?>
<svg width="220px" height="220px" viewBox="0 0 220 220" version="1.1" xmlns="http://www.w3.org/2000/svg" xmlns:xlink="http://www.w3.org/1999/xlink">
    <!-- Generator: Sketch 39.1 (31720) - http://www.bohemiancoding.com/sketch -->
    <title>Blue</title>
    <desc>Created with Sketch.</desc>
    <defs></defs>
    <g id="6-Hats" stroke="none" stroke-width="1" fill="none" fill-rule="evenodd">
        <g id="Blue">
            <rect id="blue-RECTANGLE-Copy-5" fill="#348FD4" x="0" y="0" width="220" height="220"></rect>
            <g id="hat" transform="translate(35.000000, 19.000000)" fill="#043356">
                <path d="M150.389849,75.0538459 C150.389849,87.8129997 116.552133,97.5699997 75.1949246,97.5699997 C33.8377161,97.5699997 0,87.8129997 0,75.0538459 C0,69.0495382 9.02339095,63.0452306 22.5584774,59.2925383 L22.5584774,60.0430767 L22.5584774,60.0430767 L22.5584774,60.0430767 C22.5584774,64.5463075 36.0935638,75.0538459 75.1949246,75.0538459 C114.296285,75.0538459 127.831372,64.5463075 127.831372,60.0430767 L127.831372,59.2925383 C141.366458,63.0452306 150.389849,69.0495382 150.389849,75.0538459 L150.389849,75.0538459 Z M126.327473,51.0366152 C126.327473,30.0215384 109.032641,0 97.7534019,0 C88.730011,0 84.9702648,7.50538459 75.1949246,7.50538459 C65.4195844,7.50538459 61.6598382,0 52.6364472,0 C41.3572085,0 24.0623759,30.0215384 24.0623759,51.0366152 C28.5740713,56.2903844 43.6130563,63.0452306 75.1949246,63.0452306 C106.776793,63.795769 121.815778,56.2903844 126.327473,51.0366152 L126.327473,51.0366152 Z" id="Shape"></path>
            </g>
            <g id="glasses" transform="translate(55.000000, 119.000000)" fill="#043356">
                <path d="M107.52204,21.1033131 C106.425812,9.62774498 96.581754,0.64527156 84.5440175,0.64527156 C73.354422,0.64527156 64.0419802,8.41297238 61.9179613,18.7458721 C56.3964899,16.7391753 50.3421806,17.9502816 48.0067375,18.5747773 C45.8093923,8.30787133 36.5336137,0.606164193 25.4149003,0.606164193 C13.4126049,0.606164193 3.57221358,9.59230393 2.47109677,21.0715383 C1.55329574,21.3501783 0.134431575,21.9404551 0.134431575,23.1857804 C0.134431575,24.4384382 1.51785469,24.9529445 2.43932203,25.1264835 C3.42556095,36.7095968 13.3429449,45.7996155 25.4149003,45.7996155 C38.1602357,45.7996155 48.500468,35.6769179 48.500468,23.1857804 C48.500468,22.7714867 48.4662491,22.3193078 48.4271417,21.9062362 C53.9168384,20.1708468 59.474973,21.3110709 61.530554,21.8402425 C61.4914466,22.2826446 61.4572277,22.7018267 61.4572277,23.1515614 C61.530554,35.7062484 71.8683421,45.8338344 84.5806807,45.8338344 C96.651414,45.8338344 106.567576,36.7438158 107.556259,25.1607024 C108.476504,24.9529445 109.856261,24.4677688 109.856261,23.2248877 C109.856261,21.9771183 108.476504,21.3819531 107.52204,21.1033131 L107.52204,21.1033131 Z M25.4857824,42.0550851 C14.901129,42.0550851 6.29873034,33.6286695 6.29873034,23.2591067 C6.29873034,12.891988 14.901129,4.45823987 25.4857824,4.45823987 C36.07288,4.45823987 44.6777229,12.891988 44.6777229,23.2591067 C44.6777229,33.6286695 36.07288,42.0550851 25.4857824,42.0550851 L25.4857824,42.0550851 Z M84.5794586,42.0550851 C73.992361,42.0550851 65.3875181,33.6286695 65.3875181,23.2591067 C65.3875181,12.8528807 73.992361,4.45823987 84.5794586,4.45823987 C95.1665561,4.45823987 103.768955,12.891988 103.768955,23.2591067 C103.770177,33.6286695 95.1677782,42.0550851 84.5794586,42.0550851 L84.5794586,42.0550851 Z" id="Shape"></path>
            </g>
            <path d="M71.266874,184.992009 C74.286778,164.467248 110.200741,164 110.200741,164 C110.317635,164 146.231598,164.466551 149.253114,184.992009 C152.271406,205.518164 129.0828,189.469226 110.317635,189.469226 C91.4355764,189.469226 68.2485823,205.518164 71.266874,184.992009 Z" id="Shape" fill="#043356"></path>
        </g>
    </g>
</svg>