<?xml version="1.0" encoding="UTF-8" standalone="no"?>
<svg width="220px" height="220px" viewBox="0 0 220 220" version="1.1" xmlns="http://www.w3.org/2000/svg" xmlns:xlink="http://www.w3.org/1999/xlink">
    <!-- Generator: Sketch 39.1 (31720) - http://www.bohemiancoding.com/sketch -->
    <title>Green</title>
    <desc>Created with Sketch.</desc>
    <defs></defs>
    <g id="6-Hats" stroke="none" stroke-width="1" fill="none" fill-rule="evenodd">
        <g id="Green">
            <rect id="green-RECTANGLE-Copy" fill="#4CAF50" x="0" y="0" width="220" height="220"></rect>
            <g id="hat" transform="translate(36.000000, 31.000000)" fill="#0D2F10">
                <g id="Group">
                    <path d="M65.5256994,55.954717 C78.0500976,64.554717 122.454782,74.7773585 139.208198,66.3396226 C142.135979,64.8792453 143.925179,62.9320755 145.063761,60.6603774 C144.250488,59.3622642 143.274561,58.0641509 142.461288,57.090566 C136.931034,49.9509434 114.81002,23.5018868 93.1769681,15.5509434 C89.1106051,14.090566 85.2068966,12.6301887 81.6284971,11.4943396 C84.5562785,7.9245283 86.9960963,3.21886792 82.2791152,0.78490566 C79.6766428,-0.513207547 76.5862069,5.49056604 74.9596617,9.38490566 C63.2485361,5.81509434 54.4651919,4.51698113 47.4710475,5.00377358 C38.5250488,5.65283019 21.2836695,8.08679245 8.10865322,13.2792453 C3.22901757,15.2264151 0.463890696,19.9320755 0.626545218,24.6377358 C7.13272609,30.4792453 18.0305791,37.2943396 35.9225764,42.3245283 C36.5731945,42.1622642 50.2361744,45.5698113 65.5256994,55.954717 L65.5256994,55.954717 Z" id="Shape"></path>
                    <path d="M146.364997,65.0415094 C145.063761,67.1509434 142.949252,68.7735849 140.346779,70.2339623 C135.467144,72.6679245 128.798308,73.6415094 121.153546,73.6415094 C100.333767,73.6415094 73.495771,66.1773585 64.0618087,59.6867925 C49.2602472,49.6264151 35.5972674,46.2188679 35.4346129,46.2188679 C19.3318152,41.8377358 8.75927131,35.9962264 1.76512687,30.4792453 C2.09043591,30.9660377 2.25309044,31.6150943 2.57839948,32.1018868 C2.57839948,32.2641509 2.741054,32.2641509 2.741054,32.4264151 C8.10865322,40.2150943 10.7111256,53.0339623 11.6870527,62.1207547 C12.1750163,66.3396226 14.7774886,70.0716981 18.8438517,71.5320755 C30.7176318,76.2377358 58.3689005,84.6754717 100.821731,83.3773585 C144.738452,81.9169811 149.130124,72.6679245 146.364997,65.0415094 L146.364997,65.0415094 Z" id="Shape"></path>
                </g>
            </g>
            <g id="glasses" transform="translate(51.000000, 115.000000)" fill="#0D2F10">
                <path d="M117.780435,3.46956522 C116.112174,3.04173913 114.432174,2.66608696 112.741739,2.36347826 C109.256522,1.7426087 105.712609,1.43478261 102.134783,1.24173913 C96.02,0.91826087 89.7852174,0.939130435 83.7421739,1.14782609 C80.42,1.2626087 77.1473913,1.43478261 73.8865217,1.7373913 C72.2273913,1.88869565 70.5734783,2.07130435 68.9143478,2.30086957 C67.5108696,2.49391304 66.1073913,2.71304348 64.6934783,2.91652174 C60.9004348,3.32347826 57.3056522,3.34956522 53.9091304,3.00521739 C52.2969565,2.78086957 50.6886957,2.52 49.0882609,2.30086957 C47.423913,2.07130435 45.77,1.88869565 44.1121739,1.7373913 C40.8513043,1.43478261 37.583913,1.2626087 34.2552174,1.14782609 C28.2121739,0.939130435 21.9786957,0.91826087 15.863913,1.24173913 C12.2847826,1.43478261 8.7473913,1.7426087 5.25695652,2.36347826 C3.56652174,2.66608696 1.88652174,3.04173913 0.222173913,3.46956522 C0.216956522,5.43652174 0.216956522,7.40347826 0.21173913,9.37043478 C0.884782609,9.25565217 1.63608696,9.25043478 2.25173913,9.50086957 C3.34217391,9.94956522 3.98913043,11.1913043 4.45347826,12.3965217 C5.22043478,14.3895652 5.49695652,16.2782609 5.85695652,18.2295652 C6.25869565,20.4156522 6.77521739,22.6904348 7.74043478,24.72 C8.05869565,25.3943478 8.42913043,26.0465217 8.86217391,26.6556522 C10.5004348,28.9656522 13.0308696,30.7252174 15.7178261,31.683913 C19.01,32.8578261 22.5369565,32.8330435 26.0952174,32.8786957 C30.7804348,32.9321739 35.5178261,33.0978261 39.9108696,31.9343478 C42.3408696,31.293913 44.6652174,30.2386957 46.5773913,28.6369565 C49.9073913,25.8626087 52.0086957,21.4278261 53.2465217,17.1430435 C53.9547826,14.6804348 54.3826087,12.2647826 56.1095652,10.59 C56.8765217,9.84391304 57.9043478,9.24913043 59.0013043,9.24391304 C60.0969565,9.24913043 61.1234783,9.84391304 61.8904348,10.59 C63.6173913,12.2647826 64.04,14.6804348 64.7547826,17.1430435 C65.9913043,21.4265217 68.093913,25.8626087 71.4173913,28.6369565 C73.3373913,30.24 75.6591304,31.293913 78.0891304,31.9343478 C82.4782609,33.0978261 87.2143478,32.9321739 91.9047826,32.8786957 C95.4643478,32.8330435 98.9913043,32.8578261 102.283478,31.683913 C104.970435,30.7252174 107.50087,28.9656522 109.13913,26.6556522 C109.686957,25.8834783 110.130435,25.0486957 110.50087,24.1773913 C111.309565,22.29 111.773913,20.223913 112.144348,18.2295652 C112.504348,16.2782609 112.78087,14.3895652 113.547826,12.3965217 C114.012174,11.1913043 114.660435,9.94956522 115.745652,9.50086957 C116.36,9.25043478 117.116522,9.25565217 117.784348,9.37043478 C117.786957,7.40347826 117.786957,5.43521739 117.780435,3.46956522 L117.780435,3.46956522 Z M52.2786957,14.3008696 C51.2665217,18.093913 50.0717391,21.6104348 47.8230435,24.6834783 C46.2408696,26.8434783 44.1447826,28.7791304 41.7395652,29.8069565 C40.0426087,30.5334783 38.1904348,30.8034783 36.3591304,31.0069565 C32.2165217,31.466087 28.1482609,31.586087 23.8530435,31.4347826 C20.6026087,31.3252174 17.2230435,31.0643478 14.3273913,29.6621739 C12.6004348,28.8208696 11.0456522,27.5791304 9.93956522,26.0347826 C9.55347826,25.4934783 9.21956522,24.9143478 8.9326087,24.3143478 C8.45782609,23.3073913 8.10304348,22.2378261 7.82130435,21.1578261 C7.05434783,18.1943478 6.85086957,15.1682609 6.66826087,12.09 C6.56391304,10.3421739 6.46478261,8.57869565 7.07521739,6.91434783 C7.54478261,5.63086957 8.43173913,4.40478261 9.56913043,3.7473913 C10.6908696,3.09521739 12.0526087,2.99608696 13.3986957,2.9073913 C23.2608696,2.25521739 32.2230435,2.28652174 42.0421739,2.9126087 C42.6891304,2.94913043 43.3413043,2.99608696 43.9882609,3.05869565 C45.9278261,3.25173913 47.8334783,3.61695652 49.4821739,4.62391304 C50.9652174,5.53173913 52.2356522,6.95086957 52.7221739,8.53173913 C53.273913,10.3356522 52.7991304,12.3547826 52.2786957,14.3008696 L52.2786957,14.3008696 Z M111.333043,12.0886957 C111.14913,15.1669565 110.952174,18.1930435 110.185217,21.1565217 C109.96087,22.0226087 109.689565,22.8769565 109.345217,23.7026087 C109.00087,24.5269565 108.583478,25.3095652 108.066957,26.0334783 C106.96087,27.5791304 105.406087,28.8208696 103.680435,29.6608696 C100.778261,31.0630435 97.3986957,31.323913 94.1521739,31.4334783 C89.8530435,31.5847826 85.7886957,31.4634783 81.646087,31.0056522 C79.8095652,30.8021739 77.9626087,30.5321739 76.2617391,29.8056522 C73.8604348,28.7778261 71.7591304,26.8434783 70.1782609,24.6821739 C67.9295652,21.6091304 66.74,18.0926087 65.7226087,14.2995652 C65.2021739,12.3534783 64.7247826,10.3343478 65.2778261,8.52913043 C65.7643478,6.94826087 67.0426087,5.52913043 68.5230435,4.62130435 C70.1717391,3.61434783 72.0721739,3.24913043 74.0130435,3.05608696 C74.66,2.99347826 75.3121739,2.94652174 75.9591304,2.91 C85.7769565,2.28391304 94.7456522,2.2526087 104.601304,2.90478261 C105.947391,2.99347826 107.314348,3.0926087 108.436087,3.74478261 C109.573478,4.40217391 110.460435,5.62826087 110.928696,6.91173913 C111.536522,8.5773913 111.437391,10.3408696 111.333043,12.0886957 L111.333043,12.0886957 Z" id="Shape"></path>
            </g>
            <g id="mustache" transform="translate(60.000000, 157.000000)" fill="#0D2F10">
                <g id="Group">
                    <path d="M42.1848837,0.775581395 C32.6569767,3.32209302 31.1662791,17.305814 21.1186047,24.1418605 C13.805814,29.1232558 4.36511628,26.1197674 3.33488372,17.2244186 C2.27906977,8.12790698 13.3081395,1.53604651 15.2569767,7.25581395 C15.6523256,8.41046512 15.2627907,7.13953488 15.4139535,8.53488372 L15.5,9.56976744 C22.0523256,2.88139535 8.12906977,-0.693023256 2.35581395,10.4093023 C-6.11046512,26.6895349 16.7988372,38.8825581 30.6965116,21.0151163 C32.8906977,18.1918605 34.4755814,15.4651163 36.8651163,12.6209302 C41.3244186,7.30232558 40.7511628,9.74186047 46.5860465,7.13488372 C48.1918605,2.99534884 48.3209302,-0.862790698 42.1848837,0.775581395 L42.1848837,0.775581395 Z" id="Shape"></path>
                    <path d="M97.644186,10.4093023 C91.8709302,-0.693023256 77.9476744,2.88139535 84.5,9.56976744 L84.5860465,8.53488372 C84.7383721,7.13953488 84.3476744,8.41046512 84.7430233,7.25581395 C86.6906977,1.53604651 97.7197674,8.12790698 96.6651163,17.2244186 C95.6348837,26.1197674 86.194186,29.1232558 78.8813953,24.1418605 C68.8337209,17.305814 67.3430233,3.32209302 57.8151163,0.775581395 C51.677907,-0.862790698 51.8069767,2.99534884 53.4127907,7.13488372 C59.2476744,9.74186047 58.6744186,7.30232558 63.1337209,12.6209302 C65.5232558,15.4639535 67.1081395,18.1906977 69.3023256,21.0151163 C83.2011628,38.8825581 106.111628,26.6895349 97.644186,10.4093023 L97.644186,10.4093023 Z" id="Shape"></path>
                </g>
            </g>
        </g>
    </g>
</svg>