<?xml version="1.0" encoding="UTF-8" standalone="no"?>
<svg width="220px" height="220px" viewBox="0 0 220 220" version="1.1" xmlns="http://www.w3.org/2000/svg" xmlns:xlink="http://www.w3.org/1999/xlink">
    <!-- Generator: Sketch 39.1 (31720) - http://www.bohemiancoding.com/sketch -->
    <title>Red</title>
    <desc>Created with Sketch.</desc>
    <defs></defs>
    <g id="6-Hats" stroke="none" stroke-width="1" fill="none" fill-rule="evenodd">
        <g id="Red">
            <rect id="red-RECTANGLE-Copy-3" fill="#CC4037" x="0" y="0" width="220" height="220"></rect>
            <g id="hat" transform="translate(9.000000, 4.000000)" fill="#4C0D09">
                <g id="Group">
                    <path d="M100.961538,61.9241086 C45.7370871,61.9241086 0.977620531,33.9553571 0.977620531,57.8504457 C0.977620531,75.4285714 25.2070559,90.5290171 59.9903508,97.3035714 C65.6783248,92.4821429 81.8535008,89.01116 100.961538,89.01116 C120.069576,89.01116 136.244752,92.4821429 141.943835,97.3035714 C176.716021,90.5290171 200.945456,75.4285714 200.945456,57.8504457 C200.945456,33.9553571 156.174878,61.9241086 100.961538,61.9241086 L100.961538,61.9241086 Z" id="Shape"></path>
                    <path d="M144.776713,49.1562514 C141.51057,29.1004457 133.945121,-1.49107143 119.391908,0.819197143 C107.593804,2.67187429 102.805688,3.93303429 100.961538,4.55803429 C99.1173892,3.93303429 94.3292726,2.67187429 82.5311689,0.819197143 C67.9112982,-1.49107143 60.401395,29.1004457 57.1463638,49.1562514 C70.3886782,51.8459829 85.2529526,54.1116057 100.961538,54.1116057 C116.681233,54.1116057 131.545507,51.8459829 144.776713,49.1562514 L144.776713,49.1562514 Z" id="Shape"></path>
                </g>
            </g>
            <g id="glasses" transform="translate(58.000000, 103.000000)" fill="#4C0D09">
                <path d="M102.669231,16.515 C102.406154,13.6465385 101.708077,11.0815385 100.583077,9.015 C98.7173077,5.58346154 94.7711538,3.14076923 88.8542308,1.75384615 C84.3392308,0.695769231 79.8992308,0.537692308 77.655,0.537692308 L27.8492308,0.537692308 C25.605,0.537692308 21.1661538,0.696923077 16.65,1.75384615 C10.7330769,3.14076923 6.78692308,5.58346154 4.92115385,9.015 C3.75807692,11.1542308 3.09576923,13.7434615 2.84653846,16.515 L0.830769231,16.515 L0.830769231,18.5607692 L2.74038462,18.5607692 C2.58230769,27.0796154 5.94692308,36.6461538 10.5173077,40.0338462 C13.3061538,42.1026923 16.7480769,44.2165385 21.1303846,44.2165385 L21.1303846,44.2165385 C27.4719231,44.2165385 34.0811538,39.7638462 41.3342308,30.6011538 C45.5446154,25.2819231 47.6942308,20.8892308 48.6057692,17.3203846 C49.0973077,15.3946154 49.23,13.71 49.1296154,12.2480769 C50.2038462,11.7819231 51.4384615,11.5153846 52.7526923,11.5153846 C54.0680769,11.5153846 55.3026923,11.7819231 56.3757692,12.2480769 C56.2765385,13.7088462 56.4080769,15.3946154 56.8996154,17.3203846 C57.8123077,20.8892308 59.9607692,25.2819231 64.1734615,30.6011538 C71.4265385,39.7626923 78.0357692,44.2165385 84.3761538,44.2165385 C88.7573077,44.2165385 92.2003846,42.1026923 94.9903846,40.0338462 C98.1023077,37.725 100.816154,32.3919231 102.070385,26.1138462 C102.593077,23.4934615 102.825,20.9457692 102.78,18.5607692 L104.676923,18.5607692 L104.676923,16.515 L102.669231,16.515 L102.669231,16.515 Z M46.5,17.3203846 C45.5907692,20.5153846 43.5726923,24.4776923 39.7292308,29.3307692 C32.8892308,37.9707692 26.805,42.1719231 21.1292308,42.1719231 C17.3434615,42.1696154 14.2557692,40.26 11.7346154,38.3919231 C9.05307692,36.4015385 6.58384615,31.4261538 5.44153846,25.7123077 C4.94884615,23.2465385 4.73192308,20.8234615 4.78038462,18.5619231 C4.79653846,17.8638462 4.83692308,17.1796154 4.90153846,16.5161538 C5.15076923,13.995 5.76115385,11.7530769 6.71769231,9.99346154 C10.5530769,2.94230769 24.9923077,2.58576923 27.8480769,2.58576923 C28.4596154,2.58576923 32.2753846,2.71384615 37.3846154,3.28384615 C41.6411538,3.75807692 45.0069231,6.02076923 46.3892308,9.33692308 C46.6084615,9.86538462 46.7965385,10.4607692 46.9257692,11.1230769 C46.995,11.4773077 47.0457692,11.8511538 47.0792308,12.2446154 C47.1138462,12.6484615 47.1276923,13.0753846 47.1161538,13.5230769 C47.0896154,14.6446154 46.9038462,15.9080769 46.5,17.3203846 L46.5,17.3203846 Z M56.6942308,10.1780769 C55.4919231,9.72461538 54.1592308,9.46961538 52.7538462,9.46961538 C51.3484615,9.46961538 50.0146154,9.72576923 48.8134615,10.1780769 C48.6680769,9.585 48.4857692,9.04269231 48.2792308,8.54769231 C47.1923077,5.94115385 45.1292308,3.87807692 42.4442308,2.59730769 L63.0623077,2.59730769 C60.3773077,3.87692308 58.3130769,5.94115385 57.2261538,8.54769231 C57.0207692,9.04269231 56.8384615,9.58615385 56.6942308,10.1780769 L56.6942308,10.1780769 Z M100.065,25.7111538 C98.9238462,31.425 96.4523077,36.4015385 93.7719231,38.3907692 C91.2496154,40.2588462 88.1630769,42.1707692 84.3761538,42.1707692 C78.7003846,42.1707692 72.6173077,37.9696154 65.7773077,29.3296154 C61.935,24.4765385 59.9169231,20.5142308 59.0065385,17.3192308 C58.6038462,15.9057692 58.4180769,14.6434615 58.3903846,13.5196154 C58.3788462,13.0719231 58.3926923,12.645 58.4261538,12.2411538 C58.4596154,11.8488462 58.5115385,11.4738462 58.5796154,11.1196154 C58.71,10.4573077 58.8957692,9.86192308 59.1161538,9.33346154 C60.4996154,6.01730769 63.8653846,3.75576923 68.1207692,3.28038462 C73.2311538,2.70923077 77.0469231,2.58230769 77.6573077,2.58230769 C80.5142308,2.58230769 94.9523077,2.93884615 98.7865385,9.99 C99.7442308,11.7496154 100.354615,13.9915385 100.603846,16.5126923 C100.670769,17.1761538 100.71,17.8592308 100.725,18.5584615 C100.773462,20.8223077 100.556538,23.2453846 100.065,25.7111538 L100.065,25.7111538 Z" id="Shape"></path>
            </g>
            <g id="mustache" transform="translate(73.000000, 148.000000)" fill="#4C0D09">
                <path d="M72.4355097,17.4428621 C70.5809442,6.52096265 61.9831021,0 49.4369952,0 C44.3552222,0 39.6076513,1.13570203 36.5647304,2.91494417 C33.5218095,1.13570203 28.7742386,0 23.6924657,0 C11.1463588,0 2.54851669,6.52096265 0.693951105,17.4428621 C-1.53503781,30.5674238 2.04392274,36.832433 5.20165704,42.3617589 C7.39115599,46.194479 9.45999118,49.816586 9.61795102,55.5192289 C9.87902354,64.9514792 10.9123442,66.7394969 12.7274198,66.7402282 L12.7413144,66.7402282 C13.7263696,66.7402282 15.5436391,66.6890375 16.8899542,55.6501308 C17.2541394,52.6701013 16.2442202,47.6629205 15.0756099,41.8637466 C13.0257884,31.6987381 10.219076,17.7756016 15.9846103,15.2387372 C17.8450263,14.4196862 20.3306999,14.0211301 23.5849652,14.0211301 C25.6157731,14.0211301 27.6699823,14.1666579 29.6561811,14.3070667 C31.4244538,14.4321182 33.0947329,14.5505881 34.5741439,14.5505881 C35.2345038,14.5505881 35.908027,14.5249927 36.5647304,14.4547884 C37.2214338,14.5249927 37.8949571,14.5505881 38.555317,14.5505881 C40.0347279,14.5505881 41.7057383,14.4321182 43.474011,14.3070667 C45.4602098,14.1666579 47.5136878,14.0211301 49.5452269,14.0211301 C52.7987609,14.0211301 55.2851659,14.4189549 57.1455818,15.2387372 C62.9111162,17.7748703 60.1036724,31.6987381 58.0538509,41.8652092 C56.8845093,47.6636518 55.8760527,52.66937 56.2395066,55.6501308 C57.593866,66.7402282 59.4206424,66.7402282 60.4027723,66.7402282 C62.2178479,66.7402282 63.2518999,64.9522105 63.5129724,55.5192289 C63.6709323,49.8158547 65.7390361,46.194479 67.9292664,42.3610276 C71.0848068,36.832433 74.6644987,30.5666925 72.4355097,17.4428621 L72.4355097,17.4428621 Z" id="Shape"></path>
            </g>
        </g>
    </g>
</svg>