<?xml version="1.0" encoding="UTF-8" standalone="no"?>
<svg width="220px" height="220px" viewBox="0 0 220 220" version="1.1" xmlns="http://www.w3.org/2000/svg" xmlns:xlink="http://www.w3.org/1999/xlink">
    <!-- Generator: Sketch 39.1 (31720) - http://www.bohemiancoding.com/sketch -->
    <title>White</title>
    <desc>Created with Sketch.</desc>
    <defs></defs>
    <g id="6-Hats" stroke="none" stroke-width="1" fill="none" fill-rule="evenodd">
        <g id="White">
            <rect id="white-RECTANGLE-Copy-4" fill="#F5F5F5" x="0" y="0" width="220" height="220"></rect>
            <path d="M110.175,103.2 C140.424494,103.2 164.95,97.6937 164.95,90.9 L164.95,62.2 C164.95,35.0293 140.424494,13 110.175,13 C79.9255062,13 55.4,35.0293 55.4,62.2 L55.4,90.9 C55.4,97.6937 79.9255062,103.2 110.175,103.2 L110.175,103.2 Z M171.18875,88.1374333 C170.55875,106.788333 124.27125,108.268433 110,108.268433 C95.72875,108.268433 49.44125,106.788333 48.81125,88.1333333 C43.21125,91.6716333 40,95.7347333 40,100.068433 C40,113.647633 71.3425,124.668433 110,124.668433 C148.6575,124.668433 180,113.647633 180,100.068433 C180,95.7347333 176.78875,91.6716333 171.18875,88.1374333 L171.18875,88.1374333 Z" id="hat" fill="#3C3C3C"></path>
            <g id="monocle" transform="translate(118.000000, 124.000000)" fill="#3C3C3C">
                <path d="M46.3908451,17.8810976 C45.7174296,17.8810976 45.0829225,18.0420274 44.5082746,18.3072637 C42.5897887,7.90940549 33.4373239,-1.42108547e-14 22.4471831,-1.42108547e-14 C10.0683099,-1.42108547e-14 -1.42108547e-14,10.0253354 -1.42108547e-14,22.351372 C-1.42108547e-14,34.6774085 10.0683099,44.7027439 22.4471831,44.7027439 C33.4373239,44.7027439 42.5897887,36.7933384 44.5082746,26.3954802 C45.0829225,26.6607165 45.7174296,26.8216463 46.3908451,26.8216463 C46.9176056,26.8216463 47.4174296,26.7143598 47.8873239,26.5474695 L47.8873239,55.1333841 C47.8873239,55.9559146 48.5577465,56.6234756 49.3838028,56.6234756 C50.2098592,56.6234756 50.8802817,55.9559146 50.8802817,55.1333841 L50.8802817,22.351372 C50.8802817,19.8867607 48.8660211,17.8810976 46.3908451,17.8810976 L46.3908451,17.8810976 Z M22.4471831,41.722561 C11.7204225,41.722561 2.99295775,33.0323476 2.99295775,22.351372 C2.99295775,11.6703963 11.7204225,2.98018293 22.4471831,2.98018293 C33.1739437,2.98018293 41.9014085,11.6703963 41.9014085,22.351372 C41.9014085,33.0323476 33.1739437,41.722561 22.4471831,41.722561 L22.4471831,41.722561 Z M46.3908451,23.8414634 C45.5647887,23.8414634 44.8943662,23.1739024 44.8943662,22.351372 C44.8943662,21.5288415 45.5647887,20.8612805 46.3908451,20.8612805 C47.2169014,20.8612805 47.8873239,21.5288415 47.8873239,22.351372 C47.8873239,23.1739024 47.2169014,23.8414634 46.3908451,23.8414634 L46.3908451,23.8414634 Z"></path>
            </g>
            <path d="M110.077078,194.1 L150,194.1 C150,171.349691 110.077078,173.027732 110.077078,173.027732 L109.926273,173.027732 C109.926273,173.027732 70,171.349691 70,194.1 L109.926273,194.1 L110.077078,194.1 L110.077078,194.1 Z" id="mustache" fill="#3C3C3C"></path>
        </g>
    </g>
</svg>