<?xml version="1.0" encoding="UTF-8" standalone="no"?>
<svg width="195px" height="159px" viewBox="0 0 195 159" version="1.1" xmlns="http://www.w3.org/2000/svg" xmlns:xlink="http://www.w3.org/1999/xlink">
    <!-- Generator: Sketch 39.1 (31720) - http://www.bohemiancoding.com/sketch -->
    <title>Yellow 2</title>
    <desc>Created with Sketch.</desc>
    <defs></defs>
    <g id="6-Hats" stroke="none" stroke-width="1" fill="none" fill-rule="evenodd">
        <g id="Yellow-2" transform="translate(-12.000000, -27.000000)" fill="#756B14">
            <g id="hat" transform="translate(12.000000, 27.000000)">
                <g id="Group">
                    <path d="M64.6666667,63.5833333 C78,65.25 107.583333,65.25 162.583333,53.1666667 L151.333333,9.83333333 C123.833333,-8.5 61.75,6.5 61.75,6.5 L49.25,57.75 C51.3333333,59.8333333 55.0833333,62.75 64.6666667,63.5833333 L64.6666667,63.5833333 Z" id="Shape"></path>
                    <path d="M193,64.4166667 C190.083333,61.5 183.833333,60.25 178,59.4166667 C129.666667,71.0833333 98.4166667,74 79.25,74 C72.5833333,74 67.5833333,73.5833333 63.4166667,73.1666667 C52.1666667,71.9166667 46.3333333,68.5833333 43,65.25 C37.5833333,66.5 28,69.4166667 13.8333333,76.5 C-23.25,95.25 30.0833333,97.3333333 30.9166667,97.3333333 C85.9166667,91.5 72.1666667,84 130.5,82.75 C210.916667,80.25 193,64.4166667 193,64.4166667 L193,64.4166667 Z" id="Shape"></path>
                </g>
            </g>
            <g id="glasses" transform="translate(50.000000, 116.000000)">
                <path d="M118.040816,12.244898 L114.857143,12.244898 C113.510204,3.67346939 107.387755,0.612244898 91.9591837,0.612244898 C79.5918367,0.612244898 71.755102,4.53061224 69.4285714,11.755102 L69.4285714,11.755102 C66.8571429,9.55102041 63.5510204,8.32653061 60,8.32653061 C56.4489796,8.32653061 53.1428571,9.67346939 50.5714286,11.755102 L50.5714286,11.755102 C48.244898,4.53061224 40.5306122,0.612244898 28.0408163,0.612244898 C12.6122449,0.612244898 6.48979592,3.67346939 5.14285714,12.244898 L1.95918367,12.244898 C1.10204082,12.244898 0.489795918,12.6122449 0.489795918,13.4693878 C0.489795918,14.3265306 1.10204082,14.6938776 1.95918367,14.6938776 L4.89795918,14.6938776 L4.89795918,16.4081633 C4.89795918,28.0408163 15.7959184,38.3265306 28.1632653,38.3265306 C40.5306122,38.3265306 51.4285714,28.1632653 51.4285714,16.6530612 C51.4285714,16.1632653 51.4285714,15.6734694 51.3061224,15.1836735 C53.5102041,12.7346939 56.5714286,11.2653061 60.122449,11.2653061 C63.6734694,11.2653061 66.7346939,12.8571429 68.9387755,15.1836735 C68.9387755,15.6734694 68.8163265,16.1632653 68.8163265,16.6530612 C68.8163265,28.2857143 79.7142857,38.4489796 92.0816327,38.4489796 C104.44898,38.4489796 115.346939,28.0408163 115.346939,16.4081633 L115.346939,14.6938776 L118.285714,14.6938776 C119.142857,14.6938776 119.755102,14.3265306 119.755102,13.4693878 C119.755102,12.6122449 118.897959,12.244898 118.040816,12.244898 L118.040816,12.244898 Z M28.0408163,35.5102041 C17.2653061,35.5102041 7.71428571,26.6938776 7.71428571,16.6530612 C7.71428571,6.85714286 10.6530612,3.55102041 28.0408163,3.55102041 C37.3469388,3.55102041 48.3673469,5.87755102 48.3673469,16.6530612 C48.3673469,26.6938776 38.9387755,35.5102041 28.0408163,35.5102041 L28.0408163,35.5102041 Z M91.9591837,35.5102041 C81.1836735,35.5102041 71.6326531,26.6938776 71.6326531,16.6530612 C71.6326531,5.87755102 82.6530612,3.55102041 91.9591837,3.55102041 C107.265306,3.55102041 112.285714,5.3877551 112.285714,16.6530612 C112.285714,26.6938776 102.734694,35.5102041 91.9591837,35.5102041 L91.9591837,35.5102041 Z" id="Shape"></path>
            </g>
            <g id="mustache" transform="translate(63.000000, 163.000000)">
                <path d="M47.244,10.987 C47.244,10.987 48.67,2.266 36.305,2.266 C23.942,2.266 10.145,16.374 6.5132917e-14,0.999 C6.5132917e-14,0.999 -0.16,22.081 21.877,22.081 C47.291,22.083 47.244,10.987 47.244,10.987 L47.244,10.987 Z" id="Shape"></path>
                <path d="M47.619,10.987 C47.619,10.987 46.193,2.266 58.557,2.266 C70.922,2.266 84.715,16.374 94.864,0.999 C94.864,0.999 95.024,22.081 72.987,22.081 C47.572,22.083 47.619,10.987 47.619,10.987 L47.619,10.987 Z" id="Shape"></path>
            </g>
        </g>
    </g>
</svg>